HIERARCHY
ROOT hip
{
	OFFSET	0.00  0.00  0.00 
	CHANNELS 6 Xposition Yposition Zposition Xrotation Zrotation Yrotation
	JOINT waist
	{
		OFFSET	0.000000 2.191865 -0.079388
		CHANNELS 3 Xrotation Zrotation Yrotation
		JOINT abdomen
		{
			OFFSET	0.000000 2.770984 0.119082
			CHANNELS 3 Xrotation Zrotation Yrotation
			JOINT chest
			{
				OFFSET	0.000000 2.879627 -0.290598
				CHANNELS 3 Xrotation Zrotation Yrotation
				JOINT neck
				{
					OFFSET	0.000000 12.342733 -1.613748
					CHANNELS 3 Xrotation Zrotation Yrotation
					JOINT head
					{
						OFFSET	0.000000 4.485597 1.807195
						CHANNELS 3 Xrotation Zrotation Yrotation
						End Site
						{
							OFFSET 0.000000 7.191734 2.024398
						}
					}
				}
				JOINT lCollar
				{
					OFFSET	1.858774 10.237258 -1.915852
					CHANNELS 3 Zrotation Yrotation Xrotation
					JOINT lShldr
					{
						OFFSET	6.103279 0.000102 -0.038601
						CHANNELS 3 Zrotation Yrotation Xrotation
						JOINT lForeArm
						{
							OFFSET	10.574100 -0.365985 -0.655940
							CHANNELS 3 Zrotation Yrotation Xrotation
							JOINT lHand
							{
								OFFSET	13.213392 -0.641131 0.276866
								CHANNELS 3 Zrotation Yrotation Xrotation
								JOINT lThumb1
								{
									OFFSET	1.920964 -1.225712 1.722395
									CHANNELS 3 Zrotation Yrotation Xrotation
									JOINT lThumb2
									{
										OFFSET	0.248544 -0.143036 0.768265
										CHANNELS 3 Zrotation Yrotation Xrotation
										JOINT lThumb3
										{
											OFFSET	0.628484 -0.225174 0.508305
											CHANNELS 3 Zrotation Yrotation Xrotation
											End Site
											{
												OFFSET 0.831712 -0.207978 0.609962
											}
										}
									}
								}
								JOINT lIndex1
								{
									OFFSET	5.093442 -0.710319 1.829884
									CHANNELS 3 Zrotation Yrotation Xrotation
									JOINT lIndex2
									{
										OFFSET	0.889470 -0.051998 0.127073
										CHANNELS 3 Zrotation Yrotation Xrotation
										JOINT lIndex3
										{
											OFFSET	0.889570 -0.155981 0.127073
											CHANNELS 3 Zrotation Yrotation Xrotation
											End Site
											{
												OFFSET 0.797115 -0.294470 0.076252
											}
										}
									}
								}
								JOINT lMid1
								{
									OFFSET	5.154641 -0.519844 0.864111
									CHANNELS 3 Zrotation Yrotation Xrotation
									JOINT lMid2
									{
										OFFSET	0.928821 -0.051992 0.050831
										CHANNELS 3 Zrotation Yrotation Xrotation
										JOINT lMid3
										{
											OFFSET	0.984253 -0.311865 0.050831
											CHANNELS 3 Zrotation Yrotation Xrotation
											End Site
											{
												OFFSET 0.779717 -0.606438 -0.050831
											}
										}
									}
								}
								JOINT lRing1
								{
									OFFSET	4.924408 -0.754930 -0.235503
									CHANNELS 3 Zrotation Yrotation Xrotation
									JOINT lRing2
									{
										OFFSET	0.981624 -0.036924 -0.108278
										CHANNELS 3 Zrotation Yrotation Xrotation
										JOINT lRing3
										{
											OFFSET	0.805613 -0.205247 -0.041717
											CHANNELS 3 Zrotation Yrotation Xrotation
											End Site
											{
												OFFSET 0.667431 -0.470481 -0.035991
											}
										}
									}
								}
								JOINT lPinky1
								{
									OFFSET	4.535460 -0.816635 -1.006206
									CHANNELS 3 Zrotation Yrotation Xrotation
									JOINT lPinky2
									{
										OFFSET	0.690596 -0.064334 -0.168800
										CHANNELS 3 Zrotation Yrotation Xrotation
										JOINT lPinky3
										{
											OFFSET	0.598039 -0.111176 -0.071973
											CHANNELS 3 Zrotation Yrotation Xrotation
											End Site
											{
												OFFSET 0.422025 -0.290925 -0.035981
											}
										}
									}
								}
							}
						}
					}
				}
				JOINT rCollar
				{
					OFFSET	-1.858774 10.237258 -1.915852
					CHANNELS 3 Zrotation Yrotation Xrotation
					JOINT rShldr
					{
						OFFSET	-6.103279 0.000102 -0.038601
						CHANNELS 3 Zrotation Yrotation Xrotation
						JOINT rForeArm
						{
							OFFSET	-10.574100 -0.365985 -0.655940
							CHANNELS 3 Zrotation Yrotation Xrotation
							JOINT rHand
							{
								OFFSET	-13.213392 -0.641131 0.276866
								CHANNELS 3 Zrotation Yrotation Xrotation
								JOINT rIndex1
								{
									OFFSET	-5.093442 -0.710319 1.829884
									CHANNELS 3 Zrotation Yrotation Xrotation
									JOINT rIndex2
									{
										OFFSET	-0.889470 -0.051998 0.127073
										CHANNELS 3 Zrotation Yrotation Xrotation
										JOINT rIndex3
										{
											OFFSET	-0.889570 -0.155981 0.127073
											CHANNELS 3 Zrotation Yrotation Xrotation
											End Site
											{
												OFFSET -0.797115 -0.294470 0.076252
											}
										}
									}
								}
								JOINT rThumb1
								{
									OFFSET	-1.920964 -1.225712 1.722395
									CHANNELS 3 Zrotation Yrotation Xrotation
									JOINT rThumb2
									{
										OFFSET	-0.248544 -0.143036 0.768265
										CHANNELS 3 Zrotation Yrotation Xrotation
										JOINT rThumb3
										{
											OFFSET	-0.628484 -0.225174 0.508305
											CHANNELS 3 Zrotation Yrotation Xrotation
											End Site
											{
												OFFSET -0.831712 -0.207978 0.609962
											}
										}
									}
								}
								JOINT rMid1
								{
									OFFSET	-5.154641 -0.519844 0.864111
									CHANNELS 3 Zrotation Yrotation Xrotation
									JOINT rMid2
									{
										OFFSET	-0.928821 -0.051992 0.050831
										CHANNELS 3 Zrotation Yrotation Xrotation
										JOINT rMid3
										{
											OFFSET	-0.984253 -0.311865 0.050831
											CHANNELS 3 Zrotation Yrotation Xrotation
											End Site
											{
												OFFSET -0.779717 -0.606438 -0.050831
											}
										}
									}
								}
								JOINT rRing1
								{
									OFFSET	-4.924408 -0.754930 -0.235503
									CHANNELS 3 Zrotation Yrotation Xrotation
									JOINT rRing2
									{
										OFFSET	-0.981624 -0.036924 -0.108278
										CHANNELS 3 Zrotation Yrotation Xrotation
										JOINT rRing3
										{
											OFFSET	-0.805613 -0.205247 -0.041717
											CHANNELS 3 Zrotation Yrotation Xrotation
											End Site
											{
												OFFSET -0.667431 -0.470481 -0.035991
											}
										}
									}
								}
								JOINT rPinky1
								{
									OFFSET	-4.535460 -0.816635 -1.006206
									CHANNELS 3 Zrotation Yrotation Xrotation
									JOINT rPinky2
									{
										OFFSET	-0.690596 -0.064334 -0.168800
										CHANNELS 3 Zrotation Yrotation Xrotation
										JOINT rPinky3
										{
											OFFSET	-0.598039 -0.111176 -0.071973
											CHANNELS 3 Zrotation Yrotation Xrotation
											End Site
											{
												OFFSET -0.422025 -0.290925 -0.035981
											}
										}
									}
								}
							}
						}
					}
				}
			}
		}
	}
	JOINT lThigh
	{
		OFFSET	5.761895 -0.730553 0.000101
		CHANNELS 3 Xrotation Zrotation Yrotation
		JOINT lShin
		{
			OFFSET	-1.171020 -18.459274 1.627449
			CHANNELS 3 Xrotation Zrotation Yrotation
			JOINT lFoot
			{
				OFFSET	-0.883715 -16.872776 -3.357785
				CHANNELS 3 Xrotation Zrotation Yrotation
				JOINT lToe
				{
					OFFSET	1.287613 -2.778491 2.836049
					CHANNELS 3 Xrotation Yrotation Zrotation
					End Site
					{
						OFFSET 1.362641 -0.436631 3.828194
					}
				}
			}
		}
	}
	JOINT rThigh
	{
		OFFSET	-5.761895 -0.730553 0.000101
		CHANNELS 3 Xrotation Zrotation Yrotation
		JOINT rShin
		{
			OFFSET	1.171020 -18.459274 1.627449
			CHANNELS 3 Xrotation Zrotation Yrotation
			JOINT rFoot
			{
				OFFSET	0.883715 -16.872776 -3.357785
				CHANNELS 3 Xrotation Zrotation Yrotation
				JOINT rToe
				{
					OFFSET	-1.287613 -2.778491 2.836049
					CHANNELS 3 Xrotation Yrotation Zrotation
					End Site
					{
						OFFSET -1.362641 -0.436631 3.828194
					}
				}
			}
		}
	}
}
MOTION
Frames:     5
Frame Time: 0.033333
-3.210139 32.260799 40.961437 -13.789358 -5.940361 44.459019 -5.784100 -2.761141 0.118151 -7.831511 -2.515340 -0.469031 12.870608 27.271852 25.241650 41.280842 16.567297 -24.762802 -12.480716 -1.430537 -18.489861 13.057034 2.464357 2.003107 -72.526543 20.501724 -44.331257 -31.809870 -73.513626 4.266167 1.791710 8.721130 -1.230172 -0.024818 -0.014943 -0.005307 -0.015681 -0.006574 -0.010607 -0.016048 -0.017096 -0.012018 -4.873868 -9.466925 0.128729 6.087087 -2.428572 -1.302288 6.062731 -4.508216 -2.252344 -3.550954 -3.626626 -0.018560 7.053483 0.721215 -0.149702 17.718264 -7.633743 -4.815897 -9.794404 0.059855 -0.896104 10.861785 5.448770 1.943157 23.433685 -1.358164 0.339667 -13.604292 -5.508892 -4.350700 3.623366 12.790568 2.795958 29.326775 -3.991473 -0.171011 9.178729 3.286718 3.625358 75.303329 -51.065468 -27.310158 -28.179871 13.969695 61.691597 -30.841932 15.432021 -5.568229 4.903099 9.369057 0.140412 -5.931889 2.481372 -1.285438 -5.803698 4.322717 -2.156782 -0.006068 -0.012749 -0.005670 -0.012476 -0.022080 -0.007316 -0.012037 -0.012030 -0.011011 2.885362 3.276481 -0.034705 -6.920098 -1.174901 0.003187 -17.448418 7.549195 -4.764966 8.524570 -1.094324 -0.779744 -10.964190 -5.597952 1.987166 -23.454838 1.496880 0.246856 12.544390 4.114460 -3.804172 -3.903426 -13.063750 2.878199 -0.000925 -0.005734 -0.008692 -43.902454 3.972844 15.087264 22.973629 -2.785673 -0.682704 -26.499216 -14.056844 57.241131 8.622567 -6.050570 -3.897135 7.379636 -25.801731 -8.982598 59.297554 -19.550470 4.716734 -82.911133 -107.797783 134.399368 -1.720128 -19.089001 -2.656027 
0.366743 32.565712 43.548321 -19.525606 0.270895 46.795059 -5.647382 -2.761141 0.118151 -7.850881 -2.534540 -0.472610 14.249179 27.268118 20.281868 40.408848 18.747311 -23.144249 -13.437871 -3.083270 -15.153787 9.285418 -0.471319 1.785622 -78.998825 8.474693 -45.625153 -24.841330 -69.849678 18.894451 -4.010242 10.501338 -0.728089 -0.024818 -0.014943 -0.005307 -0.015681 -0.006574 -0.010607 -0.016048 -0.017096 -0.012018 -4.804711 -9.486954 0.117982 6.106637 -2.437669 -1.306643 6.073141 -4.535457 -2.263307 -3.570536 -3.636343 -0.018037 7.043439 0.665214 -0.166905 17.749001 -7.650033 -4.826610 -9.910340 0.009197 -0.906686 10.841923 5.439614 1.939814 23.443254 -1.342486 0.351246 -13.716423 -5.600281 -4.395393 3.583170 12.781677 2.787528 29.364887 -3.969410 -0.151789 8.915576 2.807904 3.607265 83.857117 -48.467312 -25.890934 -28.257092 7.548671 63.510925 -35.346672 13.303749 -5.464442 4.903099 9.369057 0.140412 -5.931889 2.481372 -1.285438 -5.803698 4.322717 -2.156782 -0.006068 -0.012749 -0.005670 -0.012476 -0.022080 -0.007316 -0.012037 -0.012030 -0.011011 2.885362 3.276481 -0.034705 -6.920023 -1.165590 0.000243 -17.448418 7.549195 -4.764966 8.534179 -1.084427 -0.780629 -10.964190 -5.597952 1.987166 -23.454838 1.496880 0.246856 12.552880 4.124406 -3.807939 -3.903426 -13.063750 2.878199 -0.000925 -0.005734 -0.008692 -35.850452 2.264279 15.388081 28.872038 -2.037603 -5.116985 -21.031216 -15.102345 54.984398 8.742774 -5.589064 -3.871678 -10.438587 -25.056385 -6.619387 64.590599 -23.241425 -4.096760 52.293949 -62.040974 -29.808723 -1.974156 -18.605995 -2.689559 
1.283144 32.961647 44.836872 -25.176975 4.528325 45.296787 -5.510643 -2.751384 0.117734 -7.860568 -2.544140 -0.474398 16.227043 26.893951 14.948153 36.093185 20.567177 -20.709621 -14.100954 -6.164246 -10.306571 6.696835 -2.793791 1.702233 -84.355591 -8.028307 -44.070038 -19.208721 -62.841885 32.157810 -10.070505 10.081503 -0.501903 -0.024818 -0.014943 -0.005307 -0.015681 -0.006574 -0.010607 -0.016048 -0.017096 -0.012018 -4.745445 -9.506897 0.106998 6.126092 -2.437143 -1.309328 6.093559 -4.571614 -2.278491 -3.590118 -3.646060 -0.017514 7.033462 0.618525 -0.181164 17.770042 -7.666011 -4.837744 -10.026411 -0.031718 -0.917260 10.822064 5.430457 1.936470 23.452833 -1.326808 0.362826 -13.837688 -5.692104 -4.442370 3.542977 12.772783 2.781262 29.412483 -3.939820 -0.127229 9.648620 2.545068 3.690950 88.701485 -40.550911 -24.441231 -26.902014 4.901454 65.647118 -40.288578 9.801055 -5.192635 4.903099 9.369057 0.140412 -5.931889 2.481372 -1.285438 -5.803698 4.322717 -2.156782 -0.006068 -0.012749 -0.005670 -0.012476 -0.022080 -0.007316 -0.012037 -0.012030 -0.011011 2.885362 3.276481 -0.034705 -6.920023 -1.165590 0.000243 -17.448418 7.549195 -4.764966 8.543920 -1.084294 -0.781514 -10.964190 -5.597952 1.987166 -23.454838 1.496880 0.246856 12.561372 4.134359 -3.811704 -3.893466 -13.063934 2.877075 -0.000925 -0.005734 -0.008692 -28.967415 3.161836 14.103842 31.731134 -1.459335 -5.604380 -16.639353 -14.859818 52.970524 8.862149 -5.137269 -3.848559 -29.136574 -15.653335 -11.123628 57.842834 -25.917675 -10.326547 12.254162 -27.918436 2.471181 -2.227426 -18.132328 -2.724210 
0.006645 32.910435 46.097649 -26.530951 8.912719 40.919628 -5.383690 -2.751384 0.117734 -7.860568 -2.544140 -0.474398 18.658964 26.157389 9.325730 30.655739 21.362627 -16.635015 -14.140449 -9.918799 -4.067542 7.420516 -4.942791 1.287366 -86.503510 -26.506865 -41.262714 -19.180111 -56.005989 41.668819 -14.948603 11.569141 -0.082333 -0.024818 -0.014943 -0.005307 -0.015681 -0.006574 -0.010607 -0.016048 -0.017096 -0.012018 -4.686232 -9.536582 0.097057 6.145648 -2.446240 -1.313683 6.103984 -4.598854 -2.290234 -3.609700 -3.655777 -0.016990 7.033197 0.562658 -0.198837 17.791925 -7.689660 -4.854862 -10.142308 -0.082419 -0.927830 10.812008 5.421148 1.933593 23.462416 -1.311130 0.374404 -13.948653 -5.793211 -4.487594 3.492830 12.764060 2.773870 29.450388 -3.909711 -0.103160 10.410810 2.467869 3.783859 91.263390 -30.225161 -22.282030 -24.685492 2.645225 68.609749 -45.929035 4.154884 -4.674364 4.893203 9.369136 0.139040 -5.931889 2.481372 -1.285438 -5.803698 4.322717 -2.156782 -0.006068 -0.012749 -0.005670 -0.012476 -0.022080 -0.007316 -0.012037 -0.012030 -0.011011 2.895134 3.266720 -0.033628 -6.919950 -1.156280 -0.002702 -17.458109 7.549509 -4.764544 8.553661 -1.084161 -0.782399 -10.964190 -5.597952 1.987166 -23.454838 1.496880 0.246856 12.580000 4.135025 -3.816282 -3.893466 -13.063934 2.877075 -0.000925 -0.005734 -0.008692 -26.213415 3.035505 13.299577 34.326614 -1.536285 -2.149402 -14.184099 -13.618050 51.919998 8.991316 -4.676178 -3.827850 -41.708454 -4.075422 -14.209596 42.219971 -23.609238 -7.263073 -10.738176 11.654200 21.939314 -2.469415 -17.658615 -2.752696 
-1.488666 32.558544 47.801044 -25.664524 15.046153 39.507111 -5.256736 -2.751384 0.117734 -7.850881 -2.534540 -0.472610 21.416233 25.072763 3.508621 25.323244 21.391228 -10.929606 -13.084148 -13.620935 3.328730 11.279624 -6.606376 0.431103 -82.682625 -42.154633 -39.536240 -21.563829 -55.833065 48.261875 -22.046286 13.377172 0.475773 -0.024818 -0.014943 -0.005307 -0.015681 -0.006574 -0.010607 -0.016048 -0.017096 -0.012018 -4.617052 -9.556580 0.086307 6.165101 -2.445713 -1.316368 6.124208 -4.625845 -2.302051 -3.629283 -3.665493 -0.016467 7.023244 0.515969 -0.213097 17.822664 -7.705950 -4.866884 -10.248627 -0.123217 -0.937514 10.792152 5.411991 1.930248 23.472000 -1.295453 0.385983 -14.060427 -5.884758 -4.532325 3.452640 12.755157 2.767601 29.488531 -3.887650 -0.084619 11.045867 2.517513 3.867867 93.922226 -21.294512 -19.914625 -22.368511 -0.778253 71.637115 -51.388138 -3.868773 -3.866821 4.893203 9.369136 0.139040 -5.941617 2.481115 -1.286780 -5.803884 4.331880 -2.160153 -0.006068 -0.012749 -0.005670 -0.012476 -0.022080 -0.007316 -0.012037 -0.012030 -0.011011 2.895134 3.266720 -0.033628 -6.910204 -1.156148 -0.002236 -17.458925 7.557181 -4.770530 8.563404 -1.084028 -0.783284 -10.964190 -5.597952 1.987166 -23.464584 1.497176 0.247196 12.588491 4.144979 -3.820048 -3.893466 -13.063934 2.877075 -0.000925 -0.005734 -0.008692 -24.574253 0.777339 13.378901 37.230389 -1.870889 0.071469 -13.091456 -11.426121 52.452477 9.110759 -4.224485 -3.805270 -49.963383 4.148302 -11.951219 28.301870 -15.015921 -3.900194 -10.175303 43.702309 32.168102 -2.720639 -17.184235 -2.787527 
